<svg width="100" height="100" viewBox="0 0 100 100" fill="none" xmlns="http://www.w3.org/2000/svg">
<ellipse cx="50" cy="52.01" rx="50" ry="47.9899" fill="#6895D2"/>
<path d="M99.7368 43.7186C99.7368 70.2227 81.43 91.0187 53.8158 91.0187C26.2016 91.0187 6.57895 72.7353 6.57895 46.2312C6.57895 19.727 30.0173 0 57.6316 0C85.2458 0 99.7368 17.2145 99.7368 43.7186Z" fill="white"/>
<ellipse cx="55.0001" cy="43.7186" rx="41.7105" ry="40.7035" fill="#6895D2"/>
<path d="M91.3159 48.6181C91.3159 70.4736 72.0777 89.4472 50.1317 89.4472C28.1856 89.4472 11.3159 73.1118 11.3159 51.2563C11.3159 29.4008 30.554 10.4271 52.5001 10.4271C74.4461 10.4271 91.3159 26.7626 91.3159 48.6181Z" fill="white"/>
<path d="M54.2093 41.8342C54.2093 48.7724 48.3184 54.397 41.0515 54.397C33.7845 54.397 33.9461 53.2663 31.0514 41.8342C28.8599 33.179 33.7845 28.8945 41.0514 28.8945C48.3184 28.8945 54.2093 34.8959 54.2093 41.8342Z" fill="#6895D2"/>
<path d="M68.4198 44.3467C66.0514 54.397 60.9499 56.2803 53.683 56.2803C46.4161 56.2803 47.104 55.7789 44.2093 44.3467C42.0178 35.6915 44.9687 31.2814 52.2356 31.2814C57.2356 28.0151 74.0777 25.6281 68.4198 44.3467Z" fill="#6895D2"/>
<path d="M51.7094 52.7638C51.7094 59.7021 45.4344 51.005 44.3818 67.3367C43.3292 83.6684 33.1568 71.6081 34.7357 55.402C29.8672 45.8543 37.5135 42.7168 44.7804 42.7168C52.0473 42.7168 51.7094 45.8256 51.7094 52.7638Z" fill="#6895D2"/>
<path d="M66.183 50.8794C64.3409 64.9497 64.1389 74.3718 59.2093 74.3718C52.762 74.3718 58.9462 60.5765 51.7092 56.3051C59.8672 49.7725 55.6266 37.084 62.8935 37.084C70.1604 37.084 66.183 43.9411 66.183 50.8794Z" fill="#6895D2"/>
</svg>
