<svg width="150" height="150" viewBox="0 0 150 150" fill="none" xmlns="http://www.w3.org/2000/svg">
<ellipse cx="75" cy="78.015" rx="75" ry="71.9849" fill="white"/>
<path d="M149.605 65.5779C149.605 105.334 122.145 136.528 80.7239 136.528C39.3026 136.528 9.86865 109.103 9.86865 69.3467C9.86865 29.5906 45.0262 0 86.4476 0C127.869 0 149.605 25.8217 149.605 65.5779Z" fill="#6895D2"/>
<ellipse cx="82.4999" cy="65.578" rx="62.5658" ry="61.0553" fill="white"/>
<path d="M136.974 72.9273C136.974 105.711 108.116 134.171 75.1973 134.171C42.2782 134.171 16.9736 109.668 16.9736 76.8846C16.9736 44.1014 45.8309 15.6409 78.75 15.6409C111.669 15.6409 136.974 40.1441 136.974 72.9273Z" fill="#6895D2"/>
<path d="M81.3141 62.7513C81.3141 73.1587 72.4776 81.5956 61.5773 81.5956C50.6769 81.5956 50.9193 79.8996 46.5773 62.7513C43.2899 49.7685 50.6769 43.3418 61.5773 43.3418C72.4776 43.3418 81.3141 52.344 81.3141 62.7513Z" fill="white"/>
<path d="M102.63 66.5202C99.0772 81.5956 91.4249 84.4206 80.5246 84.4206C69.6242 84.4206 70.6561 83.6684 66.3141 66.5202C63.0267 53.5374 67.4532 46.9222 78.3535 46.9222C85.8535 42.0227 111.117 38.4423 102.63 66.5202Z" fill="white"/>
<path d="M77.5643 79.1457C77.5643 89.5531 68.1519 76.5075 66.5729 101.005C64.994 125.503 49.7354 107.412 52.1037 83.103C44.8011 68.7814 56.2705 64.0752 67.1708 64.0752C78.0712 64.0752 77.5643 68.7383 77.5643 79.1457Z" fill="white"/>
<path d="M99.2746 76.319C96.5115 97.4245 96.2084 111.558 88.8141 111.558C79.1431 111.558 88.4194 90.8647 77.564 84.4576C89.8009 74.6586 83.44 55.626 94.3404 55.626C105.241 55.626 99.2746 65.9116 99.2746 76.319Z" fill="white"/>
</svg>
